<mxfile host="app.diagrams.net" modified="2022-01-20T17:08:10.944Z" agent="5.0 (Windows NT 10.0; Win64; x64) AppleWebKit/537.36 (KHTML, like Gecko) Chrome/97.0.4692.71 Safari/537.36 Edg/97.0.1072.62" etag="yj3GbBM24ZfxLHaCGVfb" version="16.1.0" type="github">
  <diagram id="_5CkWuqMf3LJzgiGWqKs" name="Page-1">
    <mxGraphModel dx="2005" dy="803" grid="1" gridSize="10" guides="1" tooltips="1" connect="1" arrows="1" fold="1" page="1" pageScale="1" pageWidth="827" pageHeight="1169" math="0" shadow="0">
      <root>
        <mxCell id="0" />
        <mxCell id="1" parent="0" />
        <mxCell id="iVCnxfZ18hnIdxM7pODV-31" value="" style="rounded=0;whiteSpace=wrap;html=1;fontFamily=Noto Serif Simplified Chinese;fontSize=20;dashed=1;fontSource=https%3A%2F%2Ffonts.googleapis.com%2Fcss%3Ffamily%3DNoto%2BSerif%2BSimplified%2BChinese;fontStyle=0" parent="1" vertex="1">
          <mxGeometry x="-724.404281938326" y="110" width="604.0001762114537" height="636.4768683274021" as="geometry" />
        </mxCell>
        <mxCell id="ptCExBpaNztX0r3IuxcA-11" style="edgeStyle=orthogonalEdgeStyle;rounded=0;orthogonalLoop=1;jettySize=auto;html=1;entryX=0.117;entryY=0.013;entryDx=0;entryDy=0;entryPerimeter=0;fontFamily=Noto Serif Simplified Chinese;fontSource=https%3A%2F%2Ffonts.googleapis.com%2Fcss%3Ffamily%3DNoto%2BSerif%2BSimplified%2BChinese;fontStyle=0" parent="1" source="XMBS7pqL-egp5hLZ02eN-30" edge="1">
          <mxGeometry relative="1" as="geometry">
            <mxPoint x="-633.6678683700442" y="211.6609430604982" as="targetPoint" />
          </mxGeometry>
        </mxCell>
        <mxCell id="XMBS7pqL-egp5hLZ02eN-30" value="&lt;font style=&quot;font-size: 10px&quot;&gt;SAR测高数据&lt;/font&gt;" style="shape=process;whiteSpace=wrap;html=1;backgroundOutline=1;fontFamily=Noto Serif Simplified Chinese;fontStyle=0;fontSize=20;flipH=1;fontSource=https%3A%2F%2Ffonts.googleapis.com%2Fcss%3Ffamily%3DNoto%2BSerif%2BSimplified%2BChinese;" parent="1" vertex="1">
          <mxGeometry x="-672.4472775330396" y="142.47330960854092" width="77.93550660792953" height="38.967971530249116" as="geometry" />
        </mxCell>
        <mxCell id="XMBS7pqL-egp5hLZ02eN-34" value="&lt;span style=&quot;white-space: normal&quot;&gt;&lt;font style=&quot;font-size: 10px&quot;&gt;基准统一、噪声剔除&lt;/font&gt;&lt;/span&gt;" style="rounded=0;whiteSpace=wrap;html=1;fontFamily=Noto Serif Simplified Chinese;fontStyle=0;fontSize=20;fontSource=https%3A%2F%2Ffonts.googleapis.com%2Fcss%3Ffamily%3DNoto%2BSerif%2BSimplified%2BChinese;" parent="1" vertex="1">
          <mxGeometry x="-680.8902907488987" y="211.15435943060498" width="500.08616740088104" height="38.967971530249116" as="geometry" />
        </mxCell>
        <mxCell id="XMBS7pqL-egp5hLZ02eN-35" value="重力场球谐展开" style="rounded=0;whiteSpace=wrap;html=1;fontFamily=Noto Serif Simplified Chinese;fontStyle=0;fontSize=10;fontSource=https%3A%2F%2Ffonts.googleapis.com%2Fcss%3Ffamily%3DNoto%2BSerif%2BSimplified%2BChinese;" parent="1" vertex="1">
          <mxGeometry x="-411.3633303964758" y="277.3999110320285" width="103.91400881057268" height="38.967971530249116" as="geometry" />
        </mxCell>
        <mxCell id="iVCnxfZ18hnIdxM7pODV-15" style="edgeStyle=orthogonalEdgeStyle;rounded=0;orthogonalLoop=1;jettySize=auto;html=1;exitX=0.75;exitY=1;exitDx=0;exitDy=0;fontFamily=Noto Serif Simplified Chinese;fontSource=https%3A%2F%2Ffonts.googleapis.com%2Fcss%3Ffamily%3DNoto%2BSerif%2BSimplified%2BChinese;fontStyle=0" parent="1" source="XMBS7pqL-egp5hLZ02eN-34" target="XMBS7pqL-egp5hLZ02eN-35" edge="1">
          <mxGeometry relative="1" as="geometry" />
        </mxCell>
        <mxCell id="XMBS7pqL-egp5hLZ02eN-41" value="&lt;span style=&quot;white-space: normal; font-size: 10px;&quot;&gt;累积误差分析、&lt;br style=&quot;font-size: 10px;&quot;&gt;频谱分段处理&lt;br style=&quot;font-size: 10px;&quot;&gt;&lt;/span&gt;" style="rounded=0;whiteSpace=wrap;html=1;fontFamily=Noto Serif Simplified Chinese;fontStyle=0;fontSize=10;fontSource=https%3A%2F%2Ffonts.googleapis.com%2Fcss%3Ffamily%3DNoto%2BSerif%2BSimplified%2BChinese;" parent="1" vertex="1">
          <mxGeometry x="-405.84289867841414" y="335.36476868327406" width="92.87314537444935" height="38.967971530249116" as="geometry" />
        </mxCell>
        <mxCell id="XMBS7pqL-egp5hLZ02eN-38" value="" style="edgeStyle=orthogonalEdgeStyle;rounded=0;orthogonalLoop=1;jettySize=auto;html=1;entryX=0.5;entryY=0;entryDx=0;entryDy=0;fontFamily=Noto Serif Simplified Chinese;fontStyle=0;fontSize=20;fontSource=https%3A%2F%2Ffonts.googleapis.com%2Fcss%3Ffamily%3DNoto%2BSerif%2BSimplified%2BChinese;" parent="1" source="XMBS7pqL-egp5hLZ02eN-35" target="XMBS7pqL-egp5hLZ02eN-41" edge="1">
          <mxGeometry relative="1" as="geometry">
            <mxPoint x="-333.4278237885462" y="339.74866548042706" as="targetPoint" />
          </mxGeometry>
        </mxCell>
        <mxCell id="XMBS7pqL-egp5hLZ02eN-43" value="MDT模型及误差分布" style="rounded=0;whiteSpace=wrap;html=1;fontFamily=Noto Serif Simplified Chinese;fontStyle=0;fontSize=10;fontSource=https%3A%2F%2Ffonts.googleapis.com%2Fcss%3Ffamily%3DNoto%2BSerif%2BSimplified%2BChinese;" parent="1" vertex="1">
          <mxGeometry x="-332.77836123348015" y="697.604537366548" width="77.93550660792953" height="38.967971530249116" as="geometry" />
        </mxCell>
        <mxCell id="XMBS7pqL-egp5hLZ02eN-47" value="海洋环流" style="rounded=0;whiteSpace=wrap;html=1;fontFamily=Noto Serif Simplified Chinese;fontStyle=0;fontSize=10;fontSource=https%3A%2F%2Ffonts.googleapis.com%2Fcss%3Ffamily%3DNoto%2BSerif%2BSimplified%2BChinese;" parent="1" vertex="1">
          <mxGeometry x="-241.85360352422913" y="697.604537366548" width="90.92475770925108" height="38.967971530249116" as="geometry" />
        </mxCell>
        <mxCell id="XMBS7pqL-egp5hLZ02eN-45" value="&lt;span style=&quot;white-space: normal; font-size: 10px;&quot;&gt;外部数据检核&lt;/span&gt;" style="rounded=0;whiteSpace=wrap;html=1;fontFamily=Noto Serif Simplified Chinese;fontStyle=0;fontSize=10;fontSource=https%3A%2F%2Ffonts.googleapis.com%2Fcss%3Ffamily%3DNoto%2BSerif%2BSimplified%2BChinese;" parent="1" vertex="1">
          <mxGeometry x="-443.1869955947136" y="697.604537366548" width="97.4193832599119" height="38.967971530249116" as="geometry" />
        </mxCell>
        <mxCell id="j7Tv1Ie19FKrfCCoHS4v-1" value="&lt;span style=&quot;font-size: 10px;&quot;&gt;考拉平滑&lt;br style=&quot;font-size: 10px;&quot;&gt;&lt;/span&gt;" style="rounded=0;whiteSpace=wrap;html=1;fontFamily=Noto Serif Simplified Chinese;fontSize=10;fontSource=https%3A%2F%2Ffonts.googleapis.com%2Fcss%3Ffamily%3DNoto%2BSerif%2BSimplified%2BChinese;fontStyle=0" parent="1" vertex="1">
          <mxGeometry x="-401.6213920704846" y="397.7135231316726" width="84.43013215859031" height="29.38834519572954" as="geometry" />
        </mxCell>
        <mxCell id="XMBS7pqL-egp5hLZ02eN-59" value="" style="edgeStyle=orthogonalEdgeStyle;rounded=0;orthogonalLoop=1;jettySize=auto;html=1;fontFamily=Noto Serif Simplified Chinese;fontStyle=0;fontSize=20;entryX=0.5;entryY=0;entryDx=0;entryDy=0;fontSource=https%3A%2F%2Ffonts.googleapis.com%2Fcss%3Ffamily%3DNoto%2BSerif%2BSimplified%2BChinese;" parent="1" source="XMBS7pqL-egp5hLZ02eN-41" target="j7Tv1Ie19FKrfCCoHS4v-1" edge="1">
          <mxGeometry relative="1" as="geometry" />
        </mxCell>
        <mxCell id="dWvvoxThUH6RWhC0IFGI-3" value="重力场遗漏误差" style="whiteSpace=wrap;html=1;rounded=0;fontFamily=Noto Serif Simplified Chinese;fontSize=10;fontStyle=0;fontSource=https%3A%2F%2Ffonts.googleapis.com%2Fcss%3Ffamily%3DNoto%2BSerif%2BSimplified%2BChinese;" parent="1" vertex="1">
          <mxGeometry x="-414.6106431718062" y="454.2170818505338" width="110.4086343612335" height="31.986209964412808" as="geometry" />
        </mxCell>
        <mxCell id="dWvvoxThUH6RWhC0IFGI-4" value="" style="edgeStyle=orthogonalEdgeStyle;rounded=0;orthogonalLoop=1;jettySize=auto;html=1;fontFamily=Noto Serif Simplified Chinese;fontSize=20;fontSource=https%3A%2F%2Ffonts.googleapis.com%2Fcss%3Ffamily%3DNoto%2BSerif%2BSimplified%2BChinese;fontStyle=0" parent="1" source="j7Tv1Ie19FKrfCCoHS4v-1" target="dWvvoxThUH6RWhC0IFGI-3" edge="1">
          <mxGeometry relative="1" as="geometry" />
        </mxCell>
        <mxCell id="dWvvoxThUH6RWhC0IFGI-5" value="MDT参数化" style="rounded=0;whiteSpace=wrap;html=1;fontFamily=Noto Serif Simplified Chinese;fontStyle=0;fontSize=10;fontSource=https%3A%2F%2Ffonts.googleapis.com%2Fcss%3Ffamily%3DNoto%2BSerif%2BSimplified%2BChinese;" parent="1" vertex="1">
          <mxGeometry x="-254.84285462555067" y="277.3999110320285" width="77.93550660792953" height="38.967971530249116" as="geometry" />
        </mxCell>
        <mxCell id="iVCnxfZ18hnIdxM7pODV-16" style="edgeStyle=orthogonalEdgeStyle;rounded=0;orthogonalLoop=1;jettySize=auto;html=1;exitX=0.75;exitY=1;exitDx=0;exitDy=0;fontFamily=Noto Serif Simplified Chinese;fontSource=https%3A%2F%2Ffonts.googleapis.com%2Fcss%3Ffamily%3DNoto%2BSerif%2BSimplified%2BChinese;fontStyle=0" parent="1" source="XMBS7pqL-egp5hLZ02eN-34" target="dWvvoxThUH6RWhC0IFGI-5" edge="1">
          <mxGeometry relative="1" as="geometry" />
        </mxCell>
        <mxCell id="dWvvoxThUH6RWhC0IFGI-7" value="局部坐标系及仿射变换" style="rounded=0;whiteSpace=wrap;html=1;fontFamily=Noto Serif Simplified Chinese;fontSize=10;fontStyle=0;fontSource=https%3A%2F%2Ffonts.googleapis.com%2Fcss%3Ffamily%3DNoto%2BSerif%2BSimplified%2BChinese;" parent="1" vertex="1">
          <mxGeometry x="-254.84285462555067" y="335.36476868327406" width="77.93550660792953" height="38.967971530249116" as="geometry" />
        </mxCell>
        <mxCell id="dWvvoxThUH6RWhC0IFGI-8" value="" style="edgeStyle=orthogonalEdgeStyle;rounded=0;orthogonalLoop=1;jettySize=auto;html=1;fontFamily=Noto Serif Simplified Chinese;fontSize=20;fontSource=https%3A%2F%2Ffonts.googleapis.com%2Fcss%3Ffamily%3DNoto%2BSerif%2BSimplified%2BChinese;fontStyle=0" parent="1" source="dWvvoxThUH6RWhC0IFGI-5" target="dWvvoxThUH6RWhC0IFGI-7" edge="1">
          <mxGeometry relative="1" as="geometry" />
        </mxCell>
        <mxCell id="dWvvoxThUH6RWhC0IFGI-9" value="基于4参/16参构建LBF" style="whiteSpace=wrap;html=1;rounded=0;fontFamily=Noto Serif Simplified Chinese;fontStyle=0;fontSize=10;fontSource=https%3A%2F%2Ffonts.googleapis.com%2Fcss%3Ffamily%3DNoto%2BSerif%2BSimplified%2BChinese;" parent="1" vertex="1">
          <mxGeometry x="-254.84285462555067" y="393.16725978647685" width="77.93550660792953" height="38.967971530249116" as="geometry" />
        </mxCell>
        <mxCell id="dWvvoxThUH6RWhC0IFGI-10" value="" style="edgeStyle=orthogonalEdgeStyle;rounded=0;orthogonalLoop=1;jettySize=auto;html=1;fontFamily=Noto Serif Simplified Chinese;fontSize=20;fontSource=https%3A%2F%2Ffonts.googleapis.com%2Fcss%3Ffamily%3DNoto%2BSerif%2BSimplified%2BChinese;fontStyle=0" parent="1" source="dWvvoxThUH6RWhC0IFGI-7" target="dWvvoxThUH6RWhC0IFGI-9" edge="1">
          <mxGeometry relative="1" as="geometry" />
        </mxCell>
        <mxCell id="dWvvoxThUH6RWhC0IFGI-12" value="参数化系数矩阵" style="whiteSpace=wrap;html=1;rounded=0;fontStyle=0;fontFamily=Noto Serif Simplified Chinese;fontSize=10;fontSource=https%3A%2F%2Ffonts.googleapis.com%2Fcss%3Ffamily%3DNoto%2BSerif%2BSimplified%2BChinese;" parent="1" vertex="1">
          <mxGeometry x="-254.84285462555067" y="451.6192170818505" width="77.93550660792953" height="38.967971530249116" as="geometry" />
        </mxCell>
        <mxCell id="dWvvoxThUH6RWhC0IFGI-13" value="" style="edgeStyle=orthogonalEdgeStyle;rounded=0;orthogonalLoop=1;jettySize=auto;html=1;fontFamily=Noto Serif Simplified Chinese;fontSize=20;fontSource=https%3A%2F%2Ffonts.googleapis.com%2Fcss%3Ffamily%3DNoto%2BSerif%2BSimplified%2BChinese;fontStyle=0" parent="1" source="dWvvoxThUH6RWhC0IFGI-9" target="dWvvoxThUH6RWhC0IFGI-12" edge="1">
          <mxGeometry relative="1" as="geometry" />
        </mxCell>
        <mxCell id="dWvvoxThUH6RWhC0IFGI-22" value="" style="edgeStyle=orthogonalEdgeStyle;rounded=0;orthogonalLoop=1;jettySize=auto;html=1;fontFamily=Noto Serif Simplified Chinese;fontSize=20;fontSource=https%3A%2F%2Ffonts.googleapis.com%2Fcss%3Ffamily%3DNoto%2BSerif%2BSimplified%2BChinese;fontStyle=0" parent="1" source="dWvvoxThUH6RWhC0IFGI-20" target="XMBS7pqL-egp5hLZ02eN-43" edge="1">
          <mxGeometry relative="1" as="geometry" />
        </mxCell>
        <mxCell id="Cj0m6q7bYbMxQTCFhR2f-2" style="edgeStyle=orthogonalEdgeStyle;rounded=0;orthogonalLoop=1;jettySize=auto;html=1;fontFamily=Noto Serif Simplified Chinese;fontSize=20;fontSource=https%3A%2F%2Ffonts.googleapis.com%2Fcss%3Ffamily%3DNoto%2BSerif%2BSimplified%2BChinese;fontStyle=0" parent="1" source="dWvvoxThUH6RWhC0IFGI-20" target="XMBS7pqL-egp5hLZ02eN-45" edge="1">
          <mxGeometry relative="1" as="geometry">
            <Array as="points">
              <mxPoint x="-293.81060792951547" y="688.0249110320284" />
              <mxPoint x="-384.73536563876644" y="688.0249110320284" />
            </Array>
          </mxGeometry>
        </mxCell>
        <mxCell id="Cj0m6q7bYbMxQTCFhR2f-4" style="edgeStyle=orthogonalEdgeStyle;rounded=0;orthogonalLoop=1;jettySize=auto;html=1;exitX=0.5;exitY=1;exitDx=0;exitDy=0;fontFamily=Noto Serif Simplified Chinese;fontSize=20;fontSource=https%3A%2F%2Ffonts.googleapis.com%2Fcss%3Ffamily%3DNoto%2BSerif%2BSimplified%2BChinese;fontStyle=0" parent="1" source="dWvvoxThUH6RWhC0IFGI-20" target="XMBS7pqL-egp5hLZ02eN-47" edge="1">
          <mxGeometry relative="1" as="geometry">
            <Array as="points">
              <mxPoint x="-293.81060792951547" y="688.0249110320284" />
              <mxPoint x="-202.8858502202644" y="688.0249110320284" />
            </Array>
          </mxGeometry>
        </mxCell>
        <mxCell id="dWvvoxThUH6RWhC0IFGI-20" value="&lt;span style=&quot;font-size: 10px;&quot;&gt;选权迭代&lt;/span&gt;" style="whiteSpace=wrap;html=1;rounded=0;fontFamily=Noto Serif Simplified Chinese;fontSize=10;fontSource=https%3A%2F%2Ffonts.googleapis.com%2Fcss%3Ffamily%3DNoto%2BSerif%2BSimplified%2BChinese;fontStyle=0" parent="1" vertex="1">
          <mxGeometry x="-332.77836123348015" y="626.8127224199288" width="77.93550660792953" height="38.967971530249116" as="geometry" />
        </mxCell>
        <mxCell id="iVCnxfZ18hnIdxM7pODV-14" style="edgeStyle=orthogonalEdgeStyle;rounded=0;orthogonalLoop=1;jettySize=auto;html=1;exitX=0.5;exitY=1;exitDx=0;exitDy=0;entryX=0.892;entryY=0.063;entryDx=0;entryDy=0;entryPerimeter=0;fontFamily=Noto Serif Simplified Chinese;fontSource=https%3A%2F%2Ffonts.googleapis.com%2Fcss%3Ffamily%3DNoto%2BSerif%2BSimplified%2BChinese;fontStyle=0" parent="1" source="dWvvoxThUH6RWhC0IFGI-27" target="XMBS7pqL-egp5hLZ02eN-34" edge="1">
          <mxGeometry relative="1" as="geometry" />
        </mxCell>
        <mxCell id="dWvvoxThUH6RWhC0IFGI-27" value="&lt;span style=&quot;white-space: normal&quot;&gt;&lt;font style=&quot;font-size: 10px&quot;&gt;MSS模型&lt;/font&gt;&lt;/span&gt;" style="shape=process;whiteSpace=wrap;html=1;backgroundOutline=1;fontFamily=Noto Serif Simplified Chinese;fontSize=20;fontColor=#000000;align=center;strokeColor=#000000;fillColor=#ffffff;fontStyle=0;flipH=1;fontSource=https%3A%2F%2Ffonts.googleapis.com%2Fcss%3Ffamily%3DNoto%2BSerif%2BSimplified%2BChinese;" parent="1" vertex="1">
          <mxGeometry x="-273.8396343612335" y="142.47330960854092" width="77.93550660792953" height="38.967971530249116" as="geometry" />
        </mxCell>
        <mxCell id="iVCnxfZ18hnIdxM7pODV-13" style="edgeStyle=orthogonalEdgeStyle;rounded=0;orthogonalLoop=1;jettySize=auto;html=1;exitX=0.5;exitY=1;exitDx=0;exitDy=0;entryX=0.68;entryY=0.021;entryDx=0;entryDy=0;entryPerimeter=0;fontFamily=Noto Serif Simplified Chinese;fontSource=https%3A%2F%2Ffonts.googleapis.com%2Fcss%3Ffamily%3DNoto%2BSerif%2BSimplified%2BChinese;fontStyle=0" parent="1" source="XMBS7pqL-egp5hLZ02eN-31" target="XMBS7pqL-egp5hLZ02eN-34" edge="1">
          <mxGeometry relative="1" as="geometry" />
        </mxCell>
        <mxCell id="XMBS7pqL-egp5hLZ02eN-31" value="&lt;span style=&quot;white-space: normal&quot;&gt;&lt;font style=&quot;font-size: 10px&quot;&gt;纯卫星重力场模型&lt;/font&gt;&lt;/span&gt;" style="shape=process;whiteSpace=wrap;html=1;backgroundOutline=1;fontFamily=Noto Serif Simplified Chinese;fontSize=20;fontColor=#000000;align=center;strokeColor=#000000;fillColor=#ffffff;fontStyle=0;flipH=1;fontSource=https%3A%2F%2Ffonts.googleapis.com%2Fcss%3Ffamily%3DNoto%2BSerif%2BSimplified%2BChinese;" parent="1" vertex="1">
          <mxGeometry x="-379.70203083700443" y="142.47330960854092" width="77.93550660792953" height="38.967971530249116" as="geometry" />
        </mxCell>
        <mxCell id="Cj0m6q7bYbMxQTCFhR2f-6" value="" style="rounded=0;whiteSpace=wrap;html=1;dashed=1;fontFamily=Noto Serif Simplified Chinese;fontSize=20;fontSource=https%3A%2F%2Ffonts.googleapis.com%2Fcss%3Ffamily%3DNoto%2BSerif%2BSimplified%2BChinese;fontStyle=0" parent="1" vertex="1">
          <mxGeometry x="-790" y="777.0017793594307" width="737.14" height="62.9982206405694" as="geometry" />
        </mxCell>
        <mxCell id="Cj0m6q7bYbMxQTCFhR2f-9" value="海岸带MDT误差分析" style="rounded=0;whiteSpace=wrap;html=1;fontFamily=Noto Serif Simplified Chinese;fontSize=10;fontStyle=0;fontSource=https%3A%2F%2Ffonts.googleapis.com%2Fcss%3Ffamily%3DNoto%2BSerif%2BSimplified%2BChinese;" parent="1" vertex="1">
          <mxGeometry x="-616.5934977973568" y="789.3416370106762" width="154.24735682819383" height="38.967971530249116" as="geometry" />
        </mxCell>
        <mxCell id="Cj0m6q7bYbMxQTCFhR2f-11" value="洋流分布及浮标数据验证" style="rounded=0;whiteSpace=wrap;html=1;fontFamily=Noto Serif Simplified Chinese;fontSize=10;fontStyle=0;fontSource=https%3A%2F%2Ffonts.googleapis.com%2Fcss%3Ffamily%3DNoto%2BSerif%2BSimplified%2BChinese;" parent="1" vertex="1">
          <mxGeometry x="-425.6515066079295" y="789.3416370106762" width="168.86026431718062" height="38.967971530249116" as="geometry" />
        </mxCell>
        <mxCell id="Cj0m6q7bYbMxQTCFhR2f-12" value="日本黑潮，墨西哥暖流" style="rounded=0;whiteSpace=wrap;html=1;fontFamily=Noto Serif Simplified Chinese;fontSize=10;fontStyle=0;fontSource=https%3A%2F%2Ffonts.googleapis.com%2Fcss%3Ffamily%3DNoto%2BSerif%2BSimplified%2BChinese;" parent="1" vertex="1">
          <mxGeometry x="-221.23316740088114" y="789.3416370106762" width="149.37638766519825" height="38.967971530249116" as="geometry" />
        </mxCell>
        <mxCell id="Cj0m6q7bYbMxQTCFhR2f-13" value="高精度MDT模型" style="rounded=0;whiteSpace=wrap;html=1;fontFamily=Noto Serif Simplified Chinese;fontSize=10;fontStyle=0;fontSource=https%3A%2F%2Ffonts.googleapis.com%2Fcss%3Ffamily%3DNoto%2BSerif%2BSimplified%2BChinese;" parent="1" vertex="1">
          <mxGeometry x="-770.5161233480177" y="789.3416370106762" width="116.90325991189428" height="38.967971530249116" as="geometry" />
        </mxCell>
        <mxCell id="dWvvoxThUH6RWhC0IFGI-24" value="舒尔分解" style="text;html=1;align=center;verticalAlign=middle;resizable=0;points=[];autosize=1;fontFamily=Noto Serif Simplified Chinese;fontSize=10;fontStyle=0;fontSource=https%3A%2F%2Ffonts.googleapis.com%2Fcss%3Ffamily%3DNoto%2BSerif%2BSimplified%2BChinese;" parent="1" vertex="1">
          <mxGeometry x="-284.02226957660076" y="670.9880210981189" width="60" height="20" as="geometry" />
        </mxCell>
        <mxCell id="iVCnxfZ18hnIdxM7pODV-12" style="edgeStyle=orthogonalEdgeStyle;rounded=0;orthogonalLoop=1;jettySize=auto;html=1;exitX=0.5;exitY=1;exitDx=0;exitDy=0;entryX=0.358;entryY=0.038;entryDx=0;entryDy=0;entryPerimeter=0;fontFamily=Noto Serif Simplified Chinese;fontSource=https%3A%2F%2Ffonts.googleapis.com%2Fcss%3Ffamily%3DNoto%2BSerif%2BSimplified%2BChinese;fontStyle=0" parent="1" source="ptCExBpaNztX0r3IuxcA-1" target="XMBS7pqL-egp5hLZ02eN-34" edge="1">
          <mxGeometry relative="1" as="geometry" />
        </mxCell>
        <mxCell id="ptCExBpaNztX0r3IuxcA-1" value="&lt;font style=&quot;font-size: 10px&quot;&gt;传统测高数据&lt;/font&gt;" style="shape=process;whiteSpace=wrap;html=1;backgroundOutline=1;fontFamily=Noto Serif Simplified Chinese;fontSize=20;fontColor=#000000;align=center;strokeColor=#000000;fillColor=#ffffff;fontStyle=0;flipH=1;fontSource=https%3A%2F%2Ffonts.googleapis.com%2Fcss%3Ffamily%3DNoto%2BSerif%2BSimplified%2BChinese;" parent="1" vertex="1">
          <mxGeometry x="-540.7687444933921" y="142.47330960854092" width="77.93550660792953" height="38.967971530249116" as="geometry" />
        </mxCell>
        <mxCell id="ptCExBpaNztX0r3IuxcA-24" style="edgeStyle=orthogonalEdgeStyle;rounded=0;orthogonalLoop=1;jettySize=auto;html=1;exitX=0.119;exitY=1.071;exitDx=0;exitDy=0;entryX=0.5;entryY=0;entryDx=0;entryDy=0;fontFamily=Noto Serif Simplified Chinese;fontSize=20;exitPerimeter=0;fontSource=https%3A%2F%2Ffonts.googleapis.com%2Fcss%3Ffamily%3DNoto%2BSerif%2BSimplified%2BChinese;fontStyle=0" parent="1" target="ptCExBpaNztX0r3IuxcA-15" edge="1">
          <mxGeometry relative="1" as="geometry">
            <mxPoint x="-634.1484706607929" y="250.29119217081868" as="sourcePoint" />
          </mxGeometry>
        </mxCell>
        <mxCell id="ptCExBpaNztX0r3IuxcA-15" value="距离向匹配滤波" style="rounded=0;whiteSpace=wrap;html=1;fontFamily=Noto Serif Simplified Chinese;fontStyle=0;fontSize=10;fontSource=https%3A%2F%2Ffonts.googleapis.com%2Fcss%3Ffamily%3DNoto%2BSerif%2BSimplified%2BChinese;" parent="1" vertex="1">
          <mxGeometry x="-682.8386784140969" y="273.66548042704625" width="97.4193832599119" height="38.967971530249116" as="geometry" />
        </mxCell>
        <mxCell id="ptCExBpaNztX0r3IuxcA-16" value="距离徙动，残余视频相位改正" style="whiteSpace=wrap;html=1;rounded=0;fontFamily=Noto Serif Simplified Chinese;fontStyle=0;fontSize=10;fontSource=https%3A%2F%2Ffonts.googleapis.com%2Fcss%3Ffamily%3DNoto%2BSerif%2BSimplified%2BChinese;" parent="1" vertex="1">
          <mxGeometry x="-684.137603524229" y="407.4555160142349" width="100.0172334801762" height="38.967971530249116" as="geometry" />
        </mxCell>
        <mxCell id="ptCExBpaNztX0r3IuxcA-18" value="相对距离相位改正" style="whiteSpace=wrap;html=1;rounded=0;fontFamily=Noto Serif Simplified Chinese;fontStyle=0;fontSize=10;fontSource=https%3A%2F%2Ffonts.googleapis.com%2Fcss%3Ffamily%3DNoto%2BSerif%2BSimplified%2BChinese;" parent="1" vertex="1">
          <mxGeometry x="-673.0967400881057" y="473.70106761565836" width="77.93550660792953" height="38.967971530249116" as="geometry" />
        </mxCell>
        <mxCell id="ptCExBpaNztX0r3IuxcA-19" value="" style="edgeStyle=orthogonalEdgeStyle;rounded=0;orthogonalLoop=1;jettySize=auto;html=1;fontFamily=Noto Serif Simplified Chinese;fontStyle=0;fontSize=20;fontSource=https%3A%2F%2Ffonts.googleapis.com%2Fcss%3Ffamily%3DNoto%2BSerif%2BSimplified%2BChinese;" parent="1" source="ptCExBpaNztX0r3IuxcA-16" target="ptCExBpaNztX0r3IuxcA-18" edge="1">
          <mxGeometry relative="1" as="geometry" />
        </mxCell>
        <mxCell id="ptCExBpaNztX0r3IuxcA-20" value="二维点目标响应及多视" style="whiteSpace=wrap;html=1;rounded=0;fontFamily=Noto Serif Simplified Chinese;fontStyle=0;fontSize=10;fontSource=https%3A%2F%2Ffonts.googleapis.com%2Fcss%3Ffamily%3DNoto%2BSerif%2BSimplified%2BChinese;" parent="1" vertex="1">
          <mxGeometry x="-673.0967400881057" y="540.5960854092527" width="77.93550660792953" height="38.967971530249116" as="geometry" />
        </mxCell>
        <mxCell id="ptCExBpaNztX0r3IuxcA-21" value="" style="edgeStyle=orthogonalEdgeStyle;rounded=0;orthogonalLoop=1;jettySize=auto;html=1;fontFamily=Noto Serif Simplified Chinese;fontStyle=0;fontSize=20;fontSource=https%3A%2F%2Ffonts.googleapis.com%2Fcss%3Ffamily%3DNoto%2BSerif%2BSimplified%2BChinese;" parent="1" source="ptCExBpaNztX0r3IuxcA-18" target="ptCExBpaNztX0r3IuxcA-20" edge="1">
          <mxGeometry relative="1" as="geometry" />
        </mxCell>
        <mxCell id="ptCExBpaNztX0r3IuxcA-22" value="回波波形" style="whiteSpace=wrap;html=1;rounded=0;fontFamily=Noto Serif Simplified Chinese;fontStyle=0;fontSize=10;fontSource=https%3A%2F%2Ffonts.googleapis.com%2Fcss%3Ffamily%3DNoto%2BSerif%2BSimplified%2BChinese;" parent="1" vertex="1">
          <mxGeometry x="-673.0967400881057" y="607.491103202847" width="77.93550660792953" height="38.967971530249116" as="geometry" />
        </mxCell>
        <mxCell id="ptCExBpaNztX0r3IuxcA-23" value="" style="edgeStyle=orthogonalEdgeStyle;rounded=0;orthogonalLoop=1;jettySize=auto;html=1;fontFamily=Noto Serif Simplified Chinese;fontStyle=0;fontSize=20;fontSource=https%3A%2F%2Ffonts.googleapis.com%2Fcss%3Ffamily%3DNoto%2BSerif%2BSimplified%2BChinese;" parent="1" source="ptCExBpaNztX0r3IuxcA-20" target="ptCExBpaNztX0r3IuxcA-22" edge="1">
          <mxGeometry relative="1" as="geometry" />
        </mxCell>
        <mxCell id="ptCExBpaNztX0r3IuxcA-26" style="edgeStyle=orthogonalEdgeStyle;rounded=0;orthogonalLoop=1;jettySize=auto;html=1;exitX=0.119;exitY=1.071;exitDx=0;exitDy=0;entryX=0.5;entryY=0;entryDx=0;entryDy=0;fontFamily=Noto Serif Simplified Chinese;fontSize=20;exitPerimeter=0;fontSource=https%3A%2F%2Ffonts.googleapis.com%2Fcss%3Ffamily%3DNoto%2BSerif%2BSimplified%2BChinese;fontStyle=0" parent="1" target="ptCExBpaNztX0r3IuxcA-27" edge="1">
          <mxGeometry relative="1" as="geometry">
            <mxPoint x="-503.60649709251095" y="250.29119217081868" as="sourcePoint" />
          </mxGeometry>
        </mxCell>
        <mxCell id="ptCExBpaNztX0r3IuxcA-27" value="子波检测" style="rounded=0;whiteSpace=wrap;html=1;fontFamily=Noto Serif Simplified Chinese;fontStyle=0;fontSize=10;fontSource=https%3A%2F%2Ffonts.googleapis.com%2Fcss%3Ffamily%3DNoto%2BSerif%2BSimplified%2BChinese;" parent="1" vertex="1">
          <mxGeometry x="-552.2967048458149" y="273.66548042704625" width="97.4193832599119" height="38.967971530249116" as="geometry" />
        </mxCell>
        <mxCell id="ptCExBpaNztX0r3IuxcA-45" style="edgeStyle=orthogonalEdgeStyle;rounded=0;orthogonalLoop=1;jettySize=auto;html=1;entryX=0;entryY=0.5;entryDx=0;entryDy=0;fontFamily=Noto Serif Simplified Chinese;fontSize=30;fontSource=https%3A%2F%2Ffonts.googleapis.com%2Fcss%3Ffamily%3DNoto%2BSerif%2BSimplified%2BChinese;fontStyle=0" parent="1" source="ptCExBpaNztX0r3IuxcA-22" target="ptCExBpaNztX0r3IuxcA-27" edge="1">
          <mxGeometry relative="1" as="geometry" />
        </mxCell>
        <mxCell id="ptCExBpaNztX0r3IuxcA-29" value="波形重跟踪处理" style="whiteSpace=wrap;html=1;rounded=0;fontFamily=Noto Serif Simplified Chinese;fontStyle=0;fontSize=10;fontSource=https%3A%2F%2Ffonts.googleapis.com%2Fcss%3Ffamily%3DNoto%2BSerif%2BSimplified%2BChinese;" parent="1" vertex="1">
          <mxGeometry x="-553.5956299559472" y="345.10676156583634" width="100.0172334801762" height="38.967971530249116" as="geometry" />
        </mxCell>
        <mxCell id="ptCExBpaNztX0r3IuxcA-25" value="" style="edgeStyle=orthogonalEdgeStyle;rounded=0;orthogonalLoop=1;jettySize=auto;html=1;fontFamily=Noto Serif Simplified Chinese;fontStyle=0;fontSize=20;fontSource=https%3A%2F%2Ffonts.googleapis.com%2Fcss%3Ffamily%3DNoto%2BSerif%2BSimplified%2BChinese;" parent="1" source="ptCExBpaNztX0r3IuxcA-27" target="ptCExBpaNztX0r3IuxcA-29" edge="1">
          <mxGeometry relative="1" as="geometry" />
        </mxCell>
        <mxCell id="ptCExBpaNztX0r3IuxcA-31" value="地球物理学参数改正" style="whiteSpace=wrap;html=1;rounded=0;fontFamily=Noto Serif Simplified Chinese;fontStyle=0;fontSize=10;fontSource=https%3A%2F%2Ffonts.googleapis.com%2Fcss%3Ffamily%3DNoto%2BSerif%2BSimplified%2BChinese;" parent="1" vertex="1">
          <mxGeometry x="-542.5547665198237" y="416.5480427046263" width="77.93550660792953" height="38.967971530249116" as="geometry" />
        </mxCell>
        <mxCell id="ptCExBpaNztX0r3IuxcA-28" value="" style="edgeStyle=orthogonalEdgeStyle;rounded=0;orthogonalLoop=1;jettySize=auto;html=1;fontFamily=Noto Serif Simplified Chinese;fontStyle=0;fontSize=20;fontSource=https%3A%2F%2Ffonts.googleapis.com%2Fcss%3Ffamily%3DNoto%2BSerif%2BSimplified%2BChinese;" parent="1" source="ptCExBpaNztX0r3IuxcA-29" target="ptCExBpaNztX0r3IuxcA-31" edge="1">
          <mxGeometry relative="1" as="geometry" />
        </mxCell>
        <mxCell id="ptCExBpaNztX0r3IuxcA-33" value="&#xa;&#xa;&lt;span style=&quot;color: rgb(0, 0, 0); font-family: &amp;quot;times new roman&amp;quot;; font-size: 10px; font-style: normal; letter-spacing: normal; text-align: center; text-indent: 0px; text-transform: none; word-spacing: 0px; background-color: rgb(248, 249, 250); display: inline; float: none;&quot;&gt;海洋动力学参数估计&lt;/span&gt;&#xa;&#xa;" style="whiteSpace=wrap;html=1;rounded=0;fontFamily=Noto Serif Simplified Chinese;fontStyle=0;fontSize=10;fontSource=https%3A%2F%2Ffonts.googleapis.com%2Fcss%3Ffamily%3DNoto%2BSerif%2BSimplified%2BChinese;" parent="1" vertex="1">
          <mxGeometry x="-542.5547665198237" y="488.6387900355872" width="77.93550660792953" height="38.967971530249116" as="geometry" />
        </mxCell>
        <mxCell id="ptCExBpaNztX0r3IuxcA-30" value="" style="edgeStyle=orthogonalEdgeStyle;rounded=0;orthogonalLoop=1;jettySize=auto;html=1;fontFamily=Noto Serif Simplified Chinese;fontStyle=0;fontSize=20;fontSource=https%3A%2F%2Ffonts.googleapis.com%2Fcss%3Ffamily%3DNoto%2BSerif%2BSimplified%2BChinese;" parent="1" source="ptCExBpaNztX0r3IuxcA-31" target="ptCExBpaNztX0r3IuxcA-33" edge="1">
          <mxGeometry relative="1" as="geometry" />
        </mxCell>
        <mxCell id="ptCExBpaNztX0r3IuxcA-34" value="&#xa;&#xa;&lt;span style=&quot;color: rgb(0, 0, 0); font-family: &amp;quot;times new roman&amp;quot;; font-size: 10px; font-style: normal; letter-spacing: normal; text-align: center; text-indent: 0px; text-transform: none; word-spacing: 0px; background-color: rgb(248, 249, 250); display: inline; float: none;&quot;&gt;验潮站数据精度验证&lt;/span&gt;&#xa;&#xa;" style="whiteSpace=wrap;html=1;rounded=0;fontFamily=Noto Serif Simplified Chinese;fontStyle=0;fontSize=10;fontSource=https%3A%2F%2Ffonts.googleapis.com%2Fcss%3Ffamily%3DNoto%2BSerif%2BSimplified%2BChinese;" parent="1" vertex="1">
          <mxGeometry x="-542.5547665198237" y="560.0800711743773" width="77.93550660792953" height="38.967971530249116" as="geometry" />
        </mxCell>
        <mxCell id="ptCExBpaNztX0r3IuxcA-32" value="" style="edgeStyle=orthogonalEdgeStyle;rounded=0;orthogonalLoop=1;jettySize=auto;html=1;fontFamily=Noto Serif Simplified Chinese;fontStyle=0;fontSize=20;fontSource=https%3A%2F%2Ffonts.googleapis.com%2Fcss%3Ffamily%3DNoto%2BSerif%2BSimplified%2BChinese;" parent="1" source="ptCExBpaNztX0r3IuxcA-33" target="ptCExBpaNztX0r3IuxcA-34" edge="1">
          <mxGeometry relative="1" as="geometry" />
        </mxCell>
        <mxCell id="ptCExBpaNztX0r3IuxcA-37" value="一阶微分平滑" style="rounded=0;whiteSpace=wrap;html=1;fontFamily=Noto Serif Simplified Chinese;fontSize=10;fontStyle=0;fontSource=https%3A%2F%2Ffonts.googleapis.com%2Fcss%3Ffamily%3DNoto%2BSerif%2BSimplified%2BChinese;" parent="1" vertex="1">
          <mxGeometry x="-257.1159735682819" y="509.4217081850534" width="82.48174449339206" height="38.967971530249116" as="geometry" />
        </mxCell>
        <mxCell id="iVCnxfZ18hnIdxM7pODV-21" style="edgeStyle=orthogonalEdgeStyle;rounded=0;orthogonalLoop=1;jettySize=auto;html=1;exitX=0.5;exitY=1;exitDx=0;exitDy=0;entryX=0.5;entryY=0;entryDx=0;entryDy=0;fontFamily=Noto Serif Simplified Chinese;fontSource=https%3A%2F%2Ffonts.googleapis.com%2Fcss%3Ffamily%3DNoto%2BSerif%2BSimplified%2BChinese;fontStyle=0" parent="1" source="dWvvoxThUH6RWhC0IFGI-12" target="ptCExBpaNztX0r3IuxcA-37" edge="1">
          <mxGeometry relative="1" as="geometry" />
        </mxCell>
        <mxCell id="ptCExBpaNztX0r3IuxcA-41" value="海岸带MSS改正" style="text;html=1;strokeColor=none;fillColor=none;align=center;verticalAlign=middle;whiteSpace=wrap;rounded=0;fontFamily=Noto Serif Simplified Chinese;fontSize=10;fontStyle=0;fontSource=https%3A%2F%2Ffonts.googleapis.com%2Fcss%3Ffamily%3DNoto%2BSerif%2BSimplified%2BChinese;" parent="1" vertex="1">
          <mxGeometry x="-448.3826960352423" y="572.4199288256227" width="105.21293392070484" height="19.483985765124558" as="geometry" />
        </mxCell>
        <mxCell id="iVCnxfZ18hnIdxM7pODV-23" value="&lt;span style=&quot;font-size: 10px;&quot;&gt;全方差协方差矩阵&lt;/span&gt;" style="whiteSpace=wrap;html=1;rounded=0;fontFamily=Noto Serif Simplified Chinese;fontSize=10;fontStyle=0;fontSource=https%3A%2F%2Ffonts.googleapis.com%2Fcss%3Ffamily%3DNoto%2BSerif%2BSimplified%2BChinese;" parent="1" vertex="1">
          <mxGeometry x="-400.9719295154185" y="508.7722419928825" width="83.13120704845814" height="38.967971530249116" as="geometry" />
        </mxCell>
        <mxCell id="iVCnxfZ18hnIdxM7pODV-24" value="" style="edgeStyle=orthogonalEdgeStyle;rounded=0;orthogonalLoop=1;jettySize=auto;html=1;fontFamily=Noto Serif Simplified Chinese;fontSource=https%3A%2F%2Ffonts.googleapis.com%2Fcss%3Ffamily%3DNoto%2BSerif%2BSimplified%2BChinese;fontStyle=0" parent="1" source="dWvvoxThUH6RWhC0IFGI-3" target="iVCnxfZ18hnIdxM7pODV-23" edge="1">
          <mxGeometry relative="1" as="geometry" />
        </mxCell>
        <mxCell id="iVCnxfZ18hnIdxM7pODV-28" style="edgeStyle=orthogonalEdgeStyle;rounded=0;orthogonalLoop=1;jettySize=auto;html=1;exitX=0.5;exitY=1;exitDx=0;exitDy=0;entryX=0.5;entryY=0;entryDx=0;entryDy=0;fontFamily=Noto Serif Simplified Chinese;fontSize=20;fontSource=https%3A%2F%2Ffonts.googleapis.com%2Fcss%3Ffamily%3DNoto%2BSerif%2BSimplified%2BChinese;fontStyle=0" parent="1" source="iVCnxfZ18hnIdxM7pODV-25" target="dWvvoxThUH6RWhC0IFGI-20" edge="1">
          <mxGeometry relative="1" as="geometry" />
        </mxCell>
        <mxCell id="iVCnxfZ18hnIdxM7pODV-25" value="MDT观测方程" style="rounded=0;whiteSpace=wrap;html=1;fontFamily=Noto Serif Simplified Chinese;fontSize=10;fontStyle=0;fontSource=https%3A%2F%2Ffonts.googleapis.com%2Fcss%3Ffamily%3DNoto%2BSerif%2BSimplified%2BChinese;" parent="1" vertex="1">
          <mxGeometry x="-337.3245991189428" y="571.770462633452" width="88.97637004405286" height="38.967971530249116" as="geometry" />
        </mxCell>
        <mxCell id="iVCnxfZ18hnIdxM7pODV-29" style="edgeStyle=orthogonalEdgeStyle;rounded=0;orthogonalLoop=1;jettySize=auto;html=1;exitX=1;exitY=0.5;exitDx=0;exitDy=0;entryX=0;entryY=0.5;entryDx=0;entryDy=0;fontFamily=Noto Serif Simplified Chinese;fontSize=10;fontSource=https%3A%2F%2Ffonts.googleapis.com%2Fcss%3Ffamily%3DNoto%2BSerif%2BSimplified%2BChinese;fontStyle=0" parent="1" source="ptCExBpaNztX0r3IuxcA-33" target="iVCnxfZ18hnIdxM7pODV-25" edge="1">
          <mxGeometry relative="1" as="geometry">
            <Array as="points">
              <mxPoint x="-445.1353832599119" y="508.1227758007118" />
              <mxPoint x="-445.1353832599119" y="591.2544483985764" />
            </Array>
          </mxGeometry>
        </mxCell>
        <mxCell id="iVCnxfZ18hnIdxM7pODV-27" style="edgeStyle=orthogonalEdgeStyle;rounded=0;orthogonalLoop=1;jettySize=auto;html=1;exitX=0.5;exitY=1;exitDx=0;exitDy=0;fontFamily=Noto Serif Simplified Chinese;fontSize=20;fontSource=https%3A%2F%2Ffonts.googleapis.com%2Fcss%3Ffamily%3DNoto%2BSerif%2BSimplified%2BChinese;fontStyle=0" parent="1" source="ptCExBpaNztX0r3IuxcA-37" target="iVCnxfZ18hnIdxM7pODV-25" edge="1">
          <mxGeometry relative="1" as="geometry">
            <Array as="points">
              <mxPoint x="-215.87510132158593" y="558.7811387900357" />
              <mxPoint x="-292.5116828193832" y="558.7811387900357" />
            </Array>
          </mxGeometry>
        </mxCell>
        <mxCell id="iVCnxfZ18hnIdxM7pODV-26" style="edgeStyle=orthogonalEdgeStyle;rounded=0;orthogonalLoop=1;jettySize=auto;html=1;exitX=0.5;exitY=1;exitDx=0;exitDy=0;entryX=0.5;entryY=0;entryDx=0;entryDy=0;fontFamily=Noto Serif Simplified Chinese;fontSize=20;fontSource=https%3A%2F%2Ffonts.googleapis.com%2Fcss%3Ffamily%3DNoto%2BSerif%2BSimplified%2BChinese;fontStyle=0" parent="1" source="iVCnxfZ18hnIdxM7pODV-23" target="iVCnxfZ18hnIdxM7pODV-25" edge="1">
          <mxGeometry relative="1" as="geometry">
            <Array as="points">
              <mxPoint x="-359.4063259911894" y="558.7811387900357" />
              <mxPoint x="-292.5116828193832" y="558.7811387900357" />
            </Array>
          </mxGeometry>
        </mxCell>
        <mxCell id="iVCnxfZ18hnIdxM7pODV-32" value="沿轨及跨轨方向&lt;br style=&quot;font-size: 10px;&quot;&gt;空间分辨率分析" style="whiteSpace=wrap;html=1;rounded=0;fontFamily=Noto Serif Simplified Chinese;fontStyle=0;fontSize=10;fontSource=https%3A%2F%2Ffonts.googleapis.com%2Fcss%3Ffamily%3DNoto%2BSerif%2BSimplified%2BChinese;" parent="1" vertex="1">
          <mxGeometry x="-699.3999735682819" y="674.2237544483986" width="130.54197356828192" height="38.967971530249116" as="geometry" />
        </mxCell>
        <mxCell id="iVCnxfZ18hnIdxM7pODV-33" value="" style="edgeStyle=orthogonalEdgeStyle;rounded=0;orthogonalLoop=1;jettySize=auto;html=1;fontFamily=Noto Serif Simplified Chinese;fontSize=20;fontSource=https%3A%2F%2Ffonts.googleapis.com%2Fcss%3Ffamily%3DNoto%2BSerif%2BSimplified%2BChinese;fontStyle=0" parent="1" source="ptCExBpaNztX0r3IuxcA-22" target="iVCnxfZ18hnIdxM7pODV-32" edge="1">
          <mxGeometry relative="1" as="geometry" />
        </mxCell>
        <mxCell id="iVCnxfZ18hnIdxM7pODV-35" style="edgeStyle=orthogonalEdgeStyle;rounded=0;orthogonalLoop=1;jettySize=auto;html=1;exitX=0.5;exitY=1;exitDx=0;exitDy=0;entryX=0.5;entryY=0;entryDx=0;entryDy=0;fontFamily=Noto Serif Simplified Chinese;fontSize=20;fontSource=https%3A%2F%2Ffonts.googleapis.com%2Fcss%3Ffamily%3DNoto%2BSerif%2BSimplified%2BChinese;fontStyle=0" parent="1" source="iVCnxfZ18hnIdxM7pODV-34" target="ptCExBpaNztX0r3IuxcA-16" edge="1">
          <mxGeometry relative="1" as="geometry" />
        </mxCell>
        <mxCell id="iVCnxfZ18hnIdxM7pODV-34" value="背向投影算法" style="rounded=0;whiteSpace=wrap;html=1;fontFamily=Noto Serif Simplified Chinese;fontSize=10;fontStyle=0;fontSource=https%3A%2F%2Ffonts.googleapis.com%2Fcss%3Ffamily%3DNoto%2BSerif%2BSimplified%2BChinese;" parent="1" vertex="1">
          <mxGeometry x="-676.0193215859031" y="340.5604982206406" width="83.78066960352422" height="38.967971530249116" as="geometry" />
        </mxCell>
        <mxCell id="ptCExBpaNztX0r3IuxcA-17" value="" style="edgeStyle=orthogonalEdgeStyle;rounded=0;orthogonalLoop=1;jettySize=auto;html=1;fontFamily=Noto Serif Simplified Chinese;fontStyle=0;fontSize=20;entryX=0.5;entryY=0;entryDx=0;entryDy=0;fontSource=https%3A%2F%2Ffonts.googleapis.com%2Fcss%3Ffamily%3DNoto%2BSerif%2BSimplified%2BChinese;" parent="1" source="ptCExBpaNztX0r3IuxcA-15" target="iVCnxfZ18hnIdxM7pODV-34" edge="1">
          <mxGeometry relative="1" as="geometry" />
        </mxCell>
        <mxCell id="dCS0TbrhHVcIOkjx6F02-6" value="" style="shape=flexArrow;endArrow=classic;html=1;rounded=0;fontFamily=Times New Roman;fontSize=10;entryX=0.5;entryY=0;entryDx=0;entryDy=0;exitX=0.5;exitY=1;exitDx=0;exitDy=0;" edge="1" parent="1" source="iVCnxfZ18hnIdxM7pODV-31" target="Cj0m6q7bYbMxQTCFhR2f-6">
          <mxGeometry width="50" height="50" relative="1" as="geometry">
            <mxPoint x="-448.38" y="796.48" as="sourcePoint" />
            <mxPoint x="-398.38" y="746.48" as="targetPoint" />
          </mxGeometry>
        </mxCell>
      </root>
    </mxGraphModel>
  </diagram>
</mxfile>
